<?xml version="1.0" encoding="iso-8859-1"?>
<!-- Generator: Adobe Illustrator 16.0.0, SVG Export Plug-In . SVG Version: 6.00 Build 0)  -->
<!DOCTYPE svg PUBLIC "-//W3C//DTD SVG 1.1//EN" "http://www.w3.org/Graphics/SVG/1.1/DTD/svg11.dtd">
<svg version="1.1" id="Capa_1" xmlns="http://www.w3.org/2000/svg" xmlns:xlink="http://www.w3.org/1999/xlink" x="0px" y="0px"
	 width="84.363px" height="84.363px" viewBox="0 0 84.363 84.363" style="enable-background:new 0 0 84.363 84.363;"
	 xml:space="preserve">
<g>
	<path d="M69.666,19.947h-3.868v-2.978c0-0.149-0.048-0.311-0.14-0.484c-0.089-0.173-0.205-0.334-0.337-0.47
		c-0.133-0.143-0.283-0.259-0.457-0.346c-0.171-0.091-0.337-0.138-0.487-0.138h-5.384c-0.137,0-0.283,0.046-0.442,0.138
		c-0.167,0.087-0.324,0.206-0.463,0.346c-0.14,0.138-0.254,0.288-0.345,0.447c-0.091,0.154-0.135,0.301-0.135,0.433v3.053h-3.896
		v19.434h15.953V19.947z M64.326,19.924h-5.235v-2.906h5.235V19.924z M47.48,37.891c-0.162-0.283-0.244-0.57-0.244-0.867V22.229
		c0-0.246,0.082-0.507,0.244-0.78c0.162-0.274,0.367-0.521,0.623-0.743c0.244-0.225,0.516-0.412,0.808-0.561
		c0.292-0.145,0.557-0.219,0.808-0.219H52.2v19.456h-2.386c-0.278,0-0.575-0.067-0.876-0.201c-0.311-0.132-0.589-0.31-0.83-0.535
		C47.848,38.424,47.643,38.174,47.48,37.891z M73.61,39.381h-2.404V19.924h2.532c0.244,0,0.513,0.072,0.796,0.219
		c0.278,0.149,0.536,0.341,0.78,0.57c0.244,0.236,0.44,0.488,0.598,0.761c0.152,0.269,0.234,0.526,0.234,0.753v14.795
		c0,0.296-0.077,0.584-0.234,0.867c-0.157,0.283-0.358,0.535-0.611,0.756c-0.251,0.222-0.522,0.402-0.819,0.535
		C74.186,39.313,73.894,39.381,73.61,39.381z M36.869,9.579v11.924c-2.859-1.788-6.151-2.811-9.657-2.811
		c-10.957,0-19.85,9.914-19.85,22.127v15.573C2.833,61.22,0,67.629,0,74.787h24.111l-0.216-3.12l-3.029,0.022l-0.054-8.02
		l1.432-0.005c-0.53-0.862-0.836-1.866-0.843-2.942c-0.012-1.408,0.5-2.679,1.322-3.682c-1.023-0.292-2.02-0.648-2.947-1.141
		c-0.006,0-0.008-0.005-0.015-0.005c-1.008-0.529-1.933-1.195-2.802-1.921c-0.155-0.128-0.309-0.251-0.457-0.383
		c-0.854-0.775-1.651-1.615-2.323-2.551c-0.928-1.286-1.68-2.7-2.199-4.229c-0.081,0.014-0.166,0.077-0.264,0.077
		c-1.582,0-2.866-1.72-2.866-3.846c0-1.542,0.698-2.819,1.68-3.408c0.303,1.226,0.66,1.975,0.738,1.957
		c-0.265-0.441,2.987-7.386,14.615-5.193c3.348,0.633,5.483-1.399,6.627-4.123c0.149,0.044,0.283,0.091,0.441,0.131
		c7.711,1.817,9.699,8.911,9.47,9.185c0.051,0.018,0.273-0.67,0.472-1.756l2.628,3.864c-0.237,1.809-1.404,3.188-2.817,3.188
		c-0.091,0-0.173-0.063-0.269-0.077c-0.521,1.525-1.271,2.942-2.193,4.229c-0.675,0.936-1.469,1.771-2.322,2.541
		c-0.149,0.138-0.31,0.27-0.462,0.402c-0.869,0.716-1.792,1.382-2.796,1.906c-0.007,0.005-0.011,0.01-0.019,0.01
		c-0.95,0.506-1.981,0.876-3.036,1.172c0.792,0.977,1.286,2.199,1.291,3.555c0.019,1.09-0.285,2.101-0.803,2.972l1.445-0.014
		l0.049,8.011l-3.029,0.025l-0.177,3.164h24.034c0-7.156-2.835-13.574-7.363-18.395V45.004h10.84v14.01l14.011-14.01h12.459V9.576
		L36.869,9.579L36.869,9.579z M82.029,42.67h-11.09L60.228,53.375V42.67h-12.58l-0.594-0.867v-0.985
		c0-7.186-3.086-13.555-7.849-17.596v-11.31h42.822V42.67H82.029z M22.368,41.199c0,1.063-0.862,1.918-1.925,1.918
		c-1.053,0-1.915-0.855-1.915-1.918c0-1.068,0.862-1.921,1.915-1.921C21.504,39.276,22.368,40.131,22.368,41.199z M33.972,43.117
		c-1.057,0-1.919-0.855-1.919-1.918c0-1.068,0.862-1.921,1.919-1.921c1.059,0,1.923,0.853,1.923,1.921
		C35.897,42.262,35.031,43.117,33.972,43.117z M27.212,53.833c-2.172,0-4.02-0.839-4.804-2.029c1.13,0.762,2.847,1.245,4.804,1.245
		c1.948,0,3.668-0.483,4.791-1.245C31.23,52.994,29.38,53.833,27.212,53.833z M28.768,67.853l0.817-0.014
		c-0.014,0.249-0.062,0.493-0.154,0.707h-0.729C28.741,68.332,28.768,68.09,28.768,67.853z M27.408,66.283l-0.004-1.026
		c0.082,0,0.16,0,0.236,0.014c0.201,0.315,0.362,0.652,0.477,0.995L27.408,66.283z M28.567,66.242
		c-0.077-0.26-0.175-0.506-0.29-0.743c0.213,0.125,0.433,0.251,0.61,0.431c0.061,0.053,0.105,0.123,0.149,0.183
		c0.047,0.048,0.098,0.105,0.133,0.153h-0.596C28.574,66.261,28.567,66.252,28.567,66.242z M27.418,66.708h0.808
		c0.051,0.232,0.087,0.456,0.101,0.702l-0.908,0.01V66.708z M28.674,66.703h0.741c0.096,0.215,0.149,0.456,0.161,0.703h-0.82
		C28.745,67.164,28.721,66.94,28.674,66.703z M27.428,69.007l0.729-0.009c-0.047,0.166-0.11,0.333-0.173,0.492
		c-0.072,0.169-0.163,0.345-0.254,0.502c-0.096,0.014-0.196,0.019-0.29,0.032l-0.007-0.534L27.428,69.007z M28.612,68.998
		l0.57-0.019c-0.073,0.119-0.159,0.237-0.274,0.35c-0.051,0.048-0.119,0.104-0.187,0.147c-0.109,0.092-0.238,0.174-0.364,0.251
		c0.04-0.082,0.054-0.164,0.093-0.246C28.516,69.326,28.567,69.162,28.612,68.998z M27.428,67.853l0.911-0.004
		c-0.012,0.241-0.046,0.483-0.08,0.697l-0.829,0.01L27.428,67.853L27.428,67.853z M25.781,66.293h-0.57
		c0.038-0.055,0.091-0.114,0.136-0.16c0.185-0.241,0.423-0.434,0.691-0.584c-0.105,0.229-0.183,0.461-0.248,0.712
		C25.781,66.266,25.786,66.274,25.781,66.293z M25.627,67.424l-0.811,0.019c0.014-0.237,0.065-0.479,0.154-0.712l0.722-0.004
		C25.652,66.963,25.634,67.183,25.627,67.424z M26.003,69.5c0.039,0.104,0.072,0.2,0.121,0.282
		c-0.156-0.077-0.294-0.164-0.425-0.282c-0.065-0.044-0.125-0.087-0.185-0.15c-0.112-0.105-0.21-0.21-0.292-0.338h0.594
		C25.872,69.194,25.935,69.34,26.003,69.5z M26.974,67.42l-0.903,0.004c0-0.241,0.031-0.461,0.069-0.697h0.827L26.974,67.42z
		 M21.56,70.978l2.289-0.014l6.753-0.048l2.277-0.027l-0.049-6.588l-1.224,0.012l-8.866,0.066h-1.213L21.56,70.978z M24.905,65.974
		c0.506-0.703,1.338-1.182,2.273-1.182c0.765-0.005,1.482,0.287,2.024,0.83c0.093,0.101,0.182,0.21,0.271,0.306
		c0.366,0.497,0.575,1.076,0.575,1.701c0,0.689-0.248,1.323-0.695,1.857c-0.044,0.05-0.069,0.121-0.125,0.146
		c-0.535,0.553-1.245,0.854-2.012,0.854c-0.756,0.005-1.469-0.283-2.013-0.821c-0.051-0.048-0.082-0.107-0.136-0.155
		c-0.45-0.511-0.716-1.149-0.716-1.843C24.346,67.022,24.562,66.447,24.905,65.974z M25.72,68.564h-0.738
		c-0.093-0.205-0.133-0.461-0.164-0.685l0.818-0.014C25.645,68.104,25.681,68.341,25.72,68.564z M26.989,69.012l0.007,0.479
		L27,70.024c-0.08-0.005-0.165-0.005-0.243-0.019c-0.105-0.164-0.196-0.342-0.278-0.511c-0.081-0.155-0.141-0.324-0.194-0.483
		H26.989L26.989,69.012z M26.974,67.862l0.015,0.697l-0.813,0.005c-0.051-0.224-0.082-0.461-0.1-0.702H26.974z M26.969,66.274
		l-0.729,0.019c0.096-0.356,0.243-0.698,0.432-0.995c0.096-0.029,0.191-0.029,0.287-0.043L26.969,66.274z"/>
</g>
<g>
</g>
<g>
</g>
<g>
</g>
<g>
</g>
<g>
</g>
<g>
</g>
<g>
</g>
<g>
</g>
<g>
</g>
<g>
</g>
<g>
</g>
<g>
</g>
<g>
</g>
<g>
</g>
<g>
</g>
</svg>
