<?xml version="1.0" encoding="iso-8859-1"?>
<!-- Generator: Adobe Illustrator 16.0.0, SVG Export Plug-In . SVG Version: 6.00 Build 0)  -->
<!DOCTYPE svg PUBLIC "-//W3C//DTD SVG 1.1//EN" "http://www.w3.org/Graphics/SVG/1.1/DTD/svg11.dtd">
<svg version="1.1" id="Capa_1" xmlns="http://www.w3.org/2000/svg" xmlns:xlink="http://www.w3.org/1999/xlink" x="0px" y="0px"
	 width="87.607px" height="87.607px" viewBox="0 0 87.607 87.607" style="enable-background:new 0 0 87.607 87.607;"
	 xml:space="preserve">
<g>
	<g id="Message">
		<g>
			<path d="M43.803,2.738C19.65,2.738,0,18.956,0,38.884c0,10.79,5.871,21.02,15.849,27.858c-1.355,5.139-4.251,8.165-4.264,8.176
				c-1.5,1.497-2.048,3.764-1.433,5.92c0.048,0.17,0.109,0.336,0.182,0.502c0.925,2.146,3.053,3.529,5.419,3.529
				c9.595,0,17.517-5.197,22.845-10.096c1.794,0.171,3.537,0.257,5.206,0.257c24.153,0,43.803-16.212,43.803-36.146
				C87.605,18.956,67.956,2.738,43.803,2.738z M43.803,66.678c-1.93,0-4-0.139-6.149-0.416c-1.292-0.155-2.591,0.271-3.516,1.188
				c-3.128,3.105-7.612,6.667-12.897,8.245c1.436-2.583,2.866-6.08,3.443-10.39c0.222-1.657-0.572-3.289-2.023-4.145
				C13.603,55.83,8.405,47.708,8.405,38.884c0-15.325,15.878-27.794,35.398-27.794c19.519,0,35.398,12.469,35.398,27.794
				C79.201,54.215,63.323,66.678,43.803,66.678z M62.355,31.067H26.628c-1.16,0-2.102,0.936-2.102,2.091
				c0,1.149,0.941,2.085,2.102,2.085h35.728c1.16,0,2.101-0.936,2.101-2.085C64.456,32.003,63.516,31.067,62.355,31.067z
				 M62.355,43.296H26.628c-1.16,0-2.102,0.936-2.102,2.09c0,1.149,0.941,2.086,2.102,2.086h35.728c1.16,0,2.101-0.937,2.101-2.086
				C64.456,44.231,63.516,43.296,62.355,43.296z"/>
		</g>
	</g>
</g>
<g>
</g>
<g>
</g>
<g>
</g>
<g>
</g>
<g>
</g>
<g>
</g>
<g>
</g>
<g>
</g>
<g>
</g>
<g>
</g>
<g>
</g>
<g>
</g>
<g>
</g>
<g>
</g>
<g>
</g>
</svg>
