<?xml version="1.0" encoding="utf-8"?>
<!-- Generator: Adobe Illustrator 21.1.0, SVG Export Plug-In . SVG Version: 6.00 Build 0)  -->
<svg version="1.1" id="Calque_1" xmlns="http://www.w3.org/2000/svg" xmlns:xlink="http://www.w3.org/1999/xlink" x="0px" y="0px"
	 viewBox="0 0 432 432" style="enable-background:new 0 0 432 432;" xml:space="preserve">
<style type="text/css">
	.st0{fill:#C14148;}
	.st1{fill:#E28A6B;}
	.st2{fill:#373636;}
	.st3{fill:#3A6A52;}
	.st4{fill:#9B1917;}
	.st5{fill:#B298C8;}
	.st6{fill:#F39EA0;}
	.st7{fill:#C1944E;}
	.st8{fill:#F3B04B;}
	.st9{fill:#A5B449;}
	.st10{fill:#EC6284;}
	.st11{fill:#951B81;}
	.st12{fill:#A3195B;}
	.st13{fill:#9BC66B;}
	.st14{fill:#5FB157;}
	.st15{fill:#FFFFFF;}
	.st16{fill:#3F914D;}
	.st17{fill:#D53B87;}
	.st18{fill:#A6A8AA;}
	.st19{fill:#C8ACA0;}
	.st20{fill:#E6939F;}
	.st21{fill:#7A8D9F;}
	.st22{fill:#939D3C;}
	.st23{fill:#2A9798;}
	.st24{fill:#6595A9;}
	.st25{fill:#3C3C3B;}
</style>
<g>
	<path class="st2" d="M272.8,236.8c3.3-0.7,4-1.5,4-5c0.4-13.9,0.8-14.6-1.5-15.4c-3.7-1.1-7.3-0.8-11,0.1c-1.8,0.4-2.3,1.3-2.3,3.3
		c0,3,0.4,11.7,0.7,13C263.5,237.1,268.9,237.6,272.8,236.8z"/>
	<path class="st2" d="M226,224.2c1-3.8,1-14.7-4-15.7c-4.3-0.8-7-0.7-7.1,3.2c-0.1,1.6,0.1,9.8,0.3,12.2c0.1,2.5,1.1,3.6,3.5,3.8
		C223.9,228.3,225.4,226.6,226,224.2z"/>
	<path class="st2" d="M270.5,134.5c-1.9,0-2.9,0.7-3.4,2.8c-2,8.1-0.2,29.8,0.4,35.7c0.5,5.4,8.2,4.6,8.8,0.2
		c0.9-6.9,0.9-30.4-0.5-36.5C275.4,134.5,272.8,134.4,270.5,134.5z"/>
	<path class="st2" d="M193.3,233.1c-0.9-25.3-0.1-28.6-4.7-29.7c-1.8-0.4-3.6-0.4-5.4,0.1c-3.2,0.8-3.9,3.6-3.9,6.9
		c-0.1,17.3-0.2,15.5,1.1,23.6C181.5,240.7,193.6,242.3,193.3,233.1z"/>
	<path class="st2" d="M308.8,92c6.3-6.4,12.1-10.4,8.7-14.5c-1.1-1.3-2.3-2.4-3.8-3.1c-4.3-2.1-4.5,0-25.8,19.6
		c-4.5-2.5-21.3-23.7-63.2-28.4c-110-12.3-184.4,117.1-105.8,204c-2.7,2.8,0.4-0.8-16,17.9c-1.7,1.9-2.4,3.9-1.5,6.4
		c0.8,2.3,3.4,5.9,6.4,5.2c3.2-0.7,8.8-6.7,10.5-8.9c20.5,18.7,50.6,30.4,77.8,33.8c0.2,6.6,0.3,13.2,0.5,19.8
		c-10.2-0.6-39.5-1.4-50.3,3c-5.6,2.3-7.7,7.7-6.9,13.4c0.7,5.1,4.7,6.8,9.9,6.7c27-0.7,65.8-4.1,111,0c3.6,0.3,10.4,1.9,13.9-5.1
		c2.7-5.6,1.3-14.4-6.4-16.7c-5.9-1.8-12-2.1-18.2-2.1c-15.8,0-41.5,0.6-41.5,0.6c0-6.3,0-12.5,0-18.9c55,0,99.6-26.7,123.6-72.4
		C373,174.3,310.2,95.1,308.8,92z M111,219.2c-0.7,3.6-3.5,8.7-2.6,12.2c0.9,3.6-10.1-3.1-10.5-13c-0.2-4.5,2.2-7.8,4.3-6.6
		c1.9,1.1,1.9,5.2,2.3,6.8c0.3-0.7,1.1-2.7,3.1-3.7C109.7,213.8,111.9,215.1,111,219.2z M95.7,184.9c-1.9-4.4-0.7-8.6,1.8-8.2
		c2.3,0.4,3.9,4.5,4.8,5.9c0.1-0.8,0.1-3.1,1.6-4.9c1.6-1.8,4.3-1.4,5,3c0.6,3.8-0.2,9.9,2,13.1C113.3,197.1,99.9,194.6,95.7,184.9z
		 M114.3,156.7c-1.4,5-5.2,7.7-7.1,5.7c-1.7-1.9-0.2-6.4,0-8.3c-0.6,0.6-2.2,2.5-4.7,3c-2.6,0.5-4.6-1.7-2.1-6
		c2.1-3.7,6.9-8.3,7.2-12.4C107.8,134.4,117.5,145.7,114.3,156.7z M289.6,114.5c1.6-2.4,5.2-1.3,7.7-2.3c0.3-0.1,0.6,0.1,0.6,0.4
		c-0.1,2,1,3.9,1,5.9c0,1.4-0.9,3.1-2.3,3.7c-2.3,1-3.2-2-3.1-3.9C290,119.9,287.4,117.9,289.6,114.5z M303.5,137.5
		c-1-3.1,9.2,2.3,10.1,11.1c0.4,4-1.6,7.1-3.5,6.1c-1.8-0.9-2-4.6-2.4-6c-0.3,0.6-0.8,2.4-2.5,3.5c-1.7,1.1-3.8,0.1-3.3-3.7
		C302.3,145.3,304.5,140.6,303.5,137.5z M302.9,173.4c3.5-1.3,9.4-1.8,12-4.5c2.6-2.7,2.9,10.4-5.5,16.3c-3.8,2.7-8,2.4-8.1-0.1
		c-0.1-2.3,3.5-4.5,4.7-5.7c-0.8,0.1-2.9,0.5-4.9-0.6C299,177.6,298.9,175,302.9,173.4z M310.6,200.7c4-0.5,7,1.5,6.1,3.4
		c-0.8,1.8-4.5,2-5.9,2.4c0.6,0.3,2.4,0.8,3.5,2.5c1.1,1.7,0.1,3.7-3.6,3.3c-3.2-0.4-7.9-2.5-10.9-1.5
		C296.7,211.8,301.8,201.7,310.6,200.7z M302.1,227.3c3.5-0.7,5.8,3.3,8.8,4.6c0.4,0.2,0.4,0.6,0.1,0.9c-1.8,1.7-2.5,4.3-4.3,6.1
		c-1.3,1.3-3.4,2-5.2,1.3c-2.8-1.1-1.1-4.5,0.6-6.2C297.9,232.4,297.3,228.3,302.1,227.3z M292.5,260.3c1.2,2.9-2.6,4.1-5.1,4
		c1.9,4.4-0.7,7.8-5,4.8c-3.1-2.1-1.7-6.8-2.8-9.9c-0.1-0.4,0.2-0.8,0.6-0.7c2.6,0.1,5.1-1.2,7.7-1.2
		C289.6,257.4,291.8,258.5,292.5,260.3z M257.4,263.7c1.2-1.9,3.6-1.9,4.9,2c1.1,3.3,1.3,8.9,3.7,11.4c2.5,2.5-9.9,2.2-15-5.8
		c-2.3-3.7-1.9-7.5,0.5-7.6c2.1,0,4.1,3.4,5.2,4.6C256.6,267.6,256.3,265.6,257.4,263.7z M261.1,243.3c-3.5-0.7-5.5-3-6.3-6.6
		c-0.7-3.7-0.6-16-0.5-18.4c0.7-12.7,15.2-8.8,20.4-9.6c3.2-0.5,1.5-1.2,1.8-8.1c0.2-3.8,1.5-5.6,7.7-3.8c1.4,0.4,2.2,1.5,2.4,3
		c0.1,1.5,0.9,39.4,0.3,44.2c-0.2,1.9-1.3,3.2-3.1,3.5c-3.6,0.7-5-0.6-5.6-2.3C276.9,241.9,272.6,245.7,261.1,243.3z M284.4,130.3
		c4.1,11.6,2.6,35,0.9,49.1c-1.1,8.7-8.6,8.5-17.8,8.4c-4.3,0-7.6-2-9.2-6.2c-1.9-5.8-3.1-21.2-3.1-33.9c0.1-5.3,0.7-10.7,1.2-16
		c0.5-7.2,10.1-7.9,17.4-7.3C279,124.8,282.7,125.5,284.4,130.3z M266.4,95.5c4.9-0.6,8.7,1.7,7.5,4.1c-1,2.2-5.5,2.5-7.2,3.1
		c0.8,0.3,3,0.9,4.3,3c1.4,2.1,0.2,4.6-4.4,4.1c-4-0.5-9.7-3-13.5-1.7C249.4,109.3,255.7,96.8,266.4,95.5z M248.4,80.3
		c4,2.5,5.4,6.5,3.2,7.6c-2.1,1-5.6-1.4-7.3-2c0.4,0.7,1.7,2.5,1.4,4.9c-0.2,2.4-2.6,3.6-5.8,0.4c-2.7-2.7-5.5-8.1-9-9.4
		C227.3,80.4,239.5,74.8,248.4,80.3z M216.2,243.8c0.1,2-0.1,3.7-2.3,3.8c-3.3,0.4-5.1,0.7-5.6-1.5c-0.8-2.7-1.9-40.6-1.8-47.2
		c0-2.9,3.2-3.3,5.5-2.5c1.1,0.4,1.5,1.4,1.8,2.5c0.5,2.4,0.6,2.5,3,2.3c5.6-0.6,14.1-0.9,15.7,4.5c1.7,5.4,2.8,25-2.5,26.5
		c-3.3,0.7-7.5-0.5-1.4,2.3c4.2,2,4.6,5.4,4.9,10c0.2,3-2.2,3.2-5.2,3c-1.3,0-2.1-0.8-2.5-2.1c-0.9-2.4,1.5-6.8-6.8-7.1
		c-0.5,0-1,0.1-1.5,0.2C215.4,239.3,216.1,240.1,216.2,243.8z M218.5,261.2c0-0.4,0.4-0.6,0.7-0.5c2.2,0.9,4.7,0.6,7,1.5
		c1.6,0.6,3,2.3,3.1,4c0.1,2.9-3.5,2.6-5.6,1.8c0.2,4.4-3.1,6.4-5.8,2.5C215.9,267.8,218.6,264.2,218.5,261.2z M225.9,287.4
		c1.6-1.2,5.1,0.3,6.6,0.6c-0.5-0.5-1.9-1.9-2.1-4c-0.2-2.1,1.7-3.5,4.9-1.3c2.8,1.9,6.1,6.1,9.4,6.6c3.4,0.5-6.3,7.4-14.9,4.2
		C226,292,224.1,288.8,225.9,287.4z M249.1,182.2c0.2,2.9,0.3,4.9-2.4,5.2c-1.8,0.3-3.5,0.4-5.3,0.4c-2.7,0-3.8-1.1-4.1-3.9
		c-0.3-1.8-1.2-54.9-1-56.8c0.2-1.4,1-2.3,2.4-2.4C252.7,123.1,247.2,124.3,249.1,182.2z M243,247.7c-2.2,0-3.1-0.9-3.3-3.2
		c-0.2-1.5-1-44.7-0.8-46.2c0.1-1.2,0.8-1.8,1.9-2c11.5-1.3,7-0.4,8.5,46.7c0.1,2.4,0.2,4-2,4.3C245.8,247.7,244.4,247.7,243,247.7z
		 M230.1,182.2c0.2,2.9,0.3,4.9-2.4,5.2c-1.8,0.3-3.5,0.4-5.3,0.4c-2.7,0-3.8-1.1-4.1-3.9c-0.3-1.8-1.2-54.9-1-56.8
		c0.2-1.4,1-2.3,2.4-2.4C233.7,123.1,228.2,124.3,230.1,182.2z M221.6,102.6c2.2-4.3,6.5-4.5,7,0.7c0.4,3.8-4.2,5.7-5.9,8.7
		c-0.2,0.4-0.7,0.4-1,0c-1.6-2.1-4.3-3.1-5.9-5.2c-1.2-1.5-1.7-3.9-0.8-5.6C216.6,98.4,220,100.7,221.6,102.6z M207.9,75
		c2.7-1,5,2,7.5,2.7c0.3,0.1,0.4,0.4,0.2,0.7c-1.3,1.6-1.5,3.7-2.7,5.3c-0.9,1.1-2.5,1.9-4,1.6c-2.4-0.6-1.3-3.5-0.2-5
		C205,79.4,204.1,76.3,207.9,75z M194,108.3c0.2,0.3,0,0.6-0.3,0.7c-2,0.3-3.6,1.8-5.6,2.1c-1.4,0.3-3.2-0.3-4-1.5
		c-1.4-2,1.3-3.5,3.2-3.9c-2.1-3-0.7-6,3-4.5C192.9,102.4,192.6,106.2,194,108.3z M178.9,79.9c0.3-2.6,3.5-1.9,5.2-0.9
		c0.4-3.9,3.6-5.2,5.5-1.5c1.4,2.7-1.5,5.5-1.8,8.2c-0.1,0.3-0.4,0.5-0.7,0.3c-1.8-1.1-4.1-1.1-5.9-2.2
		C179.8,83.1,178.7,81.5,178.9,79.9z M178.5,135.2c0.6-11.9,8-10.6,24.3-11c2.4-0.1,4.3-0.1,5.1,2c0.9,2.6,0.1,5.5-2.1,6.7
		c-6.1,3.2-14.8,0.2-15,5.5c-0.1,4.6,0,18.5,0.2,20.7c0.8,7.4,17-1,16.4,8.1c-0.5,8.4-5.9,3.3-14.2,5.3c-1.8,0.5-2.3,1.1-2.2,2.8
		c0.1,1.7,0.6,2.4,2.4,2.7c9,1.4,15-2.4,17.1,1.9c1,2,1.1,4.1-0.2,6c-1.1,1.5-3.5,1.6-5.6,1.6c-3.7-0.1-13.9-0.4-17.6-0.9
		c-2-0.3-5.4-1.4-6.5-3.9C177.8,176.6,178.2,139.9,178.5,135.2z M195.4,156.4C195.4,156.4,195.4,156.4,195.4,156.4
		C195.3,156.4,195.4,156.4,195.4,156.4z M193.7,292.9c1.4-1.8,1.6-4.3,3-6.2c1-1.3,2.8-2.3,4.5-1.9c2.7,0.6,1.6,3.9,0.4,5.7
		c4.1,0.8,5.3,4.4,1,6c-3.1,1.2-5.8-2.2-8.6-2.9C193.6,293.6,193.5,293.2,193.7,292.9z M189.2,274.3c-0.3,0.3-0.8,0.2-1-0.2
		c-1.2-2.6-3.7-4.2-4.9-6.7c-0.9-1.8-0.8-4.3,0.5-5.9c2.2-2.6,5.2,0.5,6.3,2.9c3.2-4,7.7-3.1,7.1,2.3
		C196.7,270.7,191.5,271.6,189.2,274.3z M178.2,197.5c4.6-1.2,9.1-1.5,13.7-0.4c6.2,1.5,8,7.6,8.7,14c0.1,0.8,1.6,20.9,0.7,28.2
		c-1,8.7-13,9.3-20.8,7.5c-3.9-0.9-6.9-2.9-7.7-7.1c-2.8-15-2.7-27-1.3-35.3C172.3,200.6,174.6,198.3,178.2,197.5z M155.2,94.9
		c2.7-0.6,4.7-2.7,7.4-3.4c1.9-0.5,4.3,0.1,5.6,1.6c2.1,2.6-1.5,4.8-4,5.5c3.2,3.9,1.5,8-3.6,6.3c-3.7-1.3-3.6-6.4-5.7-9.1
		C154.5,95.4,154.8,95,155.2,94.9z M138.2,103.8c4.2-0.9,7.6,0.8,6.9,3c-0.7,2-4.6,2.7-6,3.3c0.7,0.2,2.7,0.6,4,2.2
		c1.4,1.7,0.6,4-3.5,3.9c-3.5-0.1-8.7-1.8-11.8-0.4C124.6,117.2,129,105.8,138.2,103.8z M125.9,128.9c0.2-3.1,1-3.8,4.1-4
		c4.5-0.4,7-0.5,7.1,2.9c0.5,11.8-0.5,13.8,4.2,14c19.4,1.1,16.1,0,16.6-8.9c0.3-6.3,0.5-7.3,2.4-7.8c3.8-1,8.9-0.5,9.2,3.5
		c0.6,6,1.7,39.2,1.9,39.2c1.2,19,2.6,20-5.2,20c-3.4,0-5-0.8-5.3-3.9c-2.6-26.8,0.4-32.2-4.7-33c-4-0.5-8-0.7-12-0.5
		c-7.5,0.4-3.3,0.3-4.4,33.8c-0.1,3.5-3.2,3.5-6.6,3.5c-2.6,0-4.1-1.1-4.4-3.8C128.1,180.2,125.7,131.4,125.9,128.9z M135.7,234.7
		c0.8,2.8,4.9,2.2,5.2-0.7c0.7-7-0.2-9.1,1.8-10c1.5-0.7,3-0.5,4.5,0.3c2.9,1.5-0.5,13.6,6.3,13.5c1.7-0.1,2.9-1,3.1-2.7
		c0.2-1.8-0.8-34.1-0.5-36.2c0.3-2.7,2-3,5.3-2.8c1.5,0.1,2.1,0.6,2.3,2.1c0.4,3.2,2.4,42,2.1,43.6c-1,6.3-6.6,6.3-13.6,5.4
		c-3-0.4-4.3-1.8-6.4-4.9c-1,1.9-2.3,4.6-4.7,5c-3.4,0.6-6.6,0.1-9.8-1c-2-0.7-3-2.5-3.5-4.4c-3.1-11.6-1.1-41.1-0.9-42.5
		c0.4-2.3,1.3-3.1,3.6-3.2c3.4-0.1,5.4,0.1,5.3,3.2C135.6,202.4,133.7,227.8,135.7,234.7z M152.7,267.9c2.5-0.1,4.9,3.9,6.2,5.3
		c-0.1-0.9-0.5-3.2,0.8-5.4c1.3-2.2,4.2-2.3,5.8,2.2c1.4,3.9,1.7,10.4,4.6,13.3c3,2.9-11.6,2.9-17.8-6.5
		C149.5,272.5,149.9,268,152.7,267.9z M124.4,262.1c-1-1.2-1.5-3.1-0.8-4.5c1.1-2.4,3.9-0.7,5.3,0.9c1.6-3.6,5.1-3.9,5.7,0.3
		c0.4,3.1-3.2,4.8-4.4,7.3c-0.2,0.3-0.6,0.3-0.8,0.1C128,264.5,125.8,263.7,124.4,262.1z M268.9,297.6
		c-12.8,6.5-29.7,11.7-40.7,13.4c-34,5-77-6.1-102-30.1c0.7-0.9,1.3-1.7,2-2.5c74.3,51.5,152.2,21,178.2-21.7
		c30.7-50.5,23.7-108.8-9.5-153.3c0,0,0-0.1-0.1-0.2c0.6-0.5,1.1-1,1.8-1.6C350.8,158.1,340,261.5,268.9,297.6z"/>
</g>
</svg>
